<svg id="eDuSl7gmIvx1" xmlns="http://www.w3.org/2000/svg" xmlns:xlink="http://www.w3.org/1999/xlink" viewBox="0 0 1920 160" shape-rendering="geometricPrecision" text-rendering="geometricPrecision">
<g id="eDuSl7gmIvx2_to" transform="translate(2839.584961,79.975001)"><g transform="translate(717.415039,-79.975)"><path d="M143.82,29.14v102.17h-16.76v-44.69h-48.07v44.69h-16.76v-102.17h16.76v43.81h48.07v-43.81h16.76Zm43.73,96.51c-7.99-4.46-14.31-10.68-18.96-18.67-4.66-7.99-6.98-16.98-6.98-26.97s2.33-18.96,6.98-26.9s10.97-14.13,18.96-18.6c7.99-4.46,16.73-6.69,26.24-6.69s18.4,2.23,26.39,6.69s14.28,10.66,18.89,18.6s6.91,16.91,6.91,26.9-2.3,18.99-6.91,26.97c-4.61,7.99-10.9,14.21-18.89,18.67s-16.78,6.69-26.39,6.69-18.25-2.23-26.24-6.69Zm44.32-12.5c5.29-3.09,9.43-7.5,12.42-13.23s4.48-12.37,4.48-19.92-1.5-14.16-4.48-19.85c-2.99-5.68-7.13-10.04-12.42-13.08s-11.32-4.56-18.08-4.56-12.79,1.52-18.08,4.56-9.43,7.4-12.42,13.08c-2.99,5.69-4.48,12.3-4.48,19.85s1.49,14.19,4.48,19.92s7.13,10.14,12.42,13.23s11.32,4.63,18.08,4.63s12.79-1.54,18.08-4.63Zm68.51-84.01v65.12c0,7.74,2.03,13.57,6.1,17.49s9.73,5.88,16.98,5.88s13.06-1.96,17.13-5.88s6.1-9.75,6.1-17.49v-65.12h16.76v64.82c0,8.33-1.81,15.39-5.44,21.17s-8.48,10.09-14.55,12.94c-6.08,2.84-12.79,4.26-20.14,4.26s-14.04-1.42-20.07-4.26-10.8-7.15-14.33-12.94c-3.53-5.78-5.29-12.84-5.29-21.17v-64.82h16.76Zm101.28,99.59c-5.49-2.4-9.8-5.81-12.94-10.22s-4.7-9.55-4.7-15.43h17.93c.39,4.41,2.13,8.04,5.22,10.88s7.42,4.26,13.01,4.26s10.29-1.4,13.52-4.19s4.85-6.39,4.85-10.8c0-3.43-1.01-6.22-3.01-8.38-2.01-2.15-4.51-3.82-7.5-5s-7.13-2.45-12.42-3.82c-6.67-1.76-12.08-3.55-16.24-5.37-4.17-1.81-7.72-4.63-10.66-8.45s-4.41-8.92-4.41-15.29c0-5.88,1.47-11.03,4.41-15.44s7.06-7.79,12.35-10.14s11.42-3.53,18.38-3.53c9.9,0,18.01,2.48,24.33,7.42c6.32,4.95,9.82,11.74,10.51,20.36h-18.52c-.29-3.72-2.06-6.91-5.29-9.55-3.23-2.65-7.5-3.97-12.79-3.97-4.8,0-8.72,1.23-11.76,3.67-3.04,2.45-4.56,5.98-4.56,10.58c0,3.14.96,5.71,2.87,7.72s4.34,3.6,7.28,4.78s6.96,2.45,12.05,3.82c6.76,1.86,12.27,3.73,16.54,5.59c4.26,1.86,7.89,4.73,10.88,8.6s4.48,9.04,4.48,15.51c0,5.2-1.4,10.09-4.19,14.7s-6.86,8.31-12.2,11.1-11.64,4.19-18.89,4.19c-6.86,0-13.03-1.2-18.52-3.6Zm91.73-86.07v29.99h35.28v13.67h-35.28v31.31h39.69v13.67h-56.45v-102.31h56.45v13.67h-39.69Zm76.73,86.07c-5.49-2.4-9.8-5.81-12.94-10.22s-4.7-9.55-4.7-15.43h17.93c.39,4.41,2.13,8.04,5.22,10.88s7.42,4.26,13.01,4.26s10.29-1.4,13.52-4.19s4.85-6.39,4.85-10.8c0-3.43-1.01-6.22-3.01-8.38-2.01-2.15-4.51-3.82-7.5-5s-7.13-2.45-12.42-3.82c-6.67-1.76-12.08-3.55-16.24-5.37-4.17-1.81-7.72-4.63-10.66-8.45s-4.41-8.92-4.41-15.29c0-5.88,1.47-11.03,4.41-15.44s7.06-7.79,12.35-10.14s11.42-3.53,18.38-3.53c9.9,0,18.01,2.48,24.33,7.42c6.32,4.95,9.82,11.74,10.51,20.36h-18.52c-.29-3.72-2.06-6.91-5.29-9.55-3.23-2.65-7.5-3.97-12.79-3.97-4.8,0-8.72,1.23-11.76,3.67-3.04,2.45-4.56,5.98-4.56,10.58c0,3.14.96,5.71,2.87,7.72s4.34,3.6,7.28,4.78s6.96,2.45,12.05,3.82c6.76,1.86,12.27,3.73,16.54,5.59c4.26,1.86,7.89,4.73,10.88,8.6s4.48,9.04,4.48,15.51c0,5.2-1.4,10.09-4.19,14.7s-6.86,8.31-12.2,11.1-11.64,4.19-18.89,4.19c-6.86,0-13.03-1.2-18.52-3.6Zm242.1-99.59L773.85,131.31h-19.4L715.94,29.14h17.93l30.28,84.97l30.43-84.97h17.64Zm32.04,0v102.17h-16.76v-102.17h16.76Zm40.13,88.64h34.54v13.52h-51.3v-102.16h16.76v88.64Zm66.59,0h34.54v13.52h-51.3v-102.16h16.76v88.64Zm111.42-7.35h-42.78l-7.35,20.87h-17.49l36.6-102.31h19.4l36.6,102.31h-17.64l-7.35-20.87Zm-4.7-13.67l-16.61-47.48-16.76,47.48h33.37Zm62.03,31.97c-5.49-2.4-9.8-5.81-12.94-10.22s-4.7-9.55-4.7-15.43h17.93c.39,4.41,2.13,8.04,5.22,10.88s7.42,4.26,13.01,4.26s10.29-1.4,13.52-4.19s4.85-6.39,4.85-10.8c0-3.43-1.01-6.22-3.01-8.38-2.01-2.15-4.51-3.82-7.5-5s-7.13-2.45-12.42-3.82c-6.67-1.76-12.08-3.55-16.24-5.37-4.17-1.81-7.72-4.63-10.66-8.45s-4.41-8.92-4.41-15.29c0-5.88,1.47-11.03,4.41-15.44s7.06-7.79,12.35-10.14s11.42-3.53,18.38-3.53c9.9,0,18.01,2.48,24.33,7.42c6.32,4.95,9.82,11.74,10.51,20.36h-18.52c-.29-3.72-2.06-6.91-5.29-9.55-3.23-2.65-7.5-3.97-12.79-3.97-4.8,0-8.72,1.23-11.76,3.67-3.04,2.45-4.56,5.98-4.56,10.58c0,3.14.96,5.71,2.87,7.72s4.34,3.6,7.28,4.78s6.96,2.45,12.05,3.82c6.76,1.86,12.27,3.73,16.54,5.59c4.26,1.86,7.89,4.73,10.88,8.6s4.48,9.04,4.48,15.51c0,5.2-1.4,10.09-4.19,14.7s-6.86,8.31-12.2,11.1-11.64,4.19-18.89,4.19c-6.86,0-13.04-1.2-18.52-3.6Zm215.65-18.3h-42.78l-7.35,20.87h-17.49l36.6-102.31h19.4l36.6,102.31h-17.64l-7.35-20.87Zm-4.7-13.67l-16.61-47.48-16.76,47.48h33.37Zm114.66-22.49c-2.45,4.61-6.37,8.36-11.76,11.25s-12.3,4.34-20.73,4.34h-18.52v41.45h-16.76v-102.17h35.28c7.84,0,14.48,1.35,19.92,4.04c5.44,2.7,9.5,6.35,12.2,10.95c2.69,4.61,4.04,9.75,4.04,15.43c0,5.2-1.23,10.09-3.67,14.7Zm-18.23-2.43c3.13-2.89,4.7-6.98,4.7-12.27c0-11.17-6.32-16.76-18.96-16.76h-18.52v33.37h18.52c6.37,0,11.12-1.44,14.26-4.34Zm100.84,38.59h-42.78l-7.35,20.87h-17.49l36.6-102.31h19.4l36.6,102.31h-17.64l-7.35-20.87Zm-4.7-13.67l-16.61-47.48-16.76,47.48h33.37Zm99.96,34.54l-23.52-40.87h-12.79v40.87h-16.76v-102.16h35.28c7.84,0,14.48,1.37,19.92,4.12c5.44,2.74,9.5,6.42,12.2,11.02c2.69,4.61,4.04,9.75,4.04,15.44c0,6.67-1.94,12.72-5.81,18.15-3.87,5.44-9.83,9.14-17.86,11.1l25.28,42.34h-19.99ZM1586.9,77.06h18.52c6.27,0,11-1.57,14.19-4.7c3.18-3.13,4.78-7.35,4.78-12.64s-1.57-9.43-4.7-12.42c-3.14-2.99-7.89-4.48-14.26-4.48h-18.52v34.25Zm143.47-47.92v13.67h-27.2v88.49h-16.76v-88.49h-27.34v-13.67h71.29Zm125.83,0v102.17h-16.76v-69.98l-31.16,69.97h-11.61l-31.31-69.97v69.97h-16.76v-102.16h18.08l35.87,80.12l35.72-80.12h17.93Zm40.13,13.52v29.99h35.28v13.67h-35.28v31.31h39.69v13.67h-56.45v-102.31h56.45v13.67h-39.69Zm145.53,88.64h-16.76l-50.42-76.29v76.29h-16.76v-102.31h16.76l50.42,76.15v-76.15h16.76v102.31Zm89.38-102.17v13.67h-27.2v88.49h-16.76v-88.48h-27.34v-13.67h71.29Zm33.37,99.59c-5.49-2.4-9.8-5.81-12.94-10.22s-4.7-9.55-4.7-15.43h17.93c.39,4.41,2.13,8.04,5.22,10.88s7.42,4.26,13.01,4.26s10.29-1.4,13.52-4.19s4.85-6.39,4.85-10.8c0-3.43-1.01-6.22-3.01-8.38-2.01-2.15-4.51-3.82-7.5-5s-7.13-2.45-12.42-3.82c-6.67-1.76-12.08-3.55-16.24-5.37-4.17-1.81-7.72-4.63-10.66-8.45s-4.41-8.92-4.41-15.29c0-5.88,1.47-11.03,4.41-15.44s7.06-7.79,12.35-10.14s11.42-3.53,18.38-3.53c9.9,0,18.01,2.48,24.33,7.42c6.32,4.95,9.82,11.74,10.51,20.36h-18.52c-.29-3.72-2.06-6.91-5.29-9.55-3.23-2.65-7.5-3.97-12.79-3.97-4.8,0-8.72,1.23-11.76,3.67-3.04,2.45-4.56,5.98-4.56,10.58c0,3.14.96,5.71,2.87,7.72s4.34,3.6,7.28,4.78s6.96,2.45,12.05,3.82c6.76,1.86,12.27,3.73,16.54,5.59c4.26,1.86,7.89,4.73,10.88,8.6s4.48,9.04,4.48,15.51c0,5.2-1.4,10.09-4.19,14.7s-6.86,8.31-12.2,11.1-11.64,4.19-18.89,4.19c-6.86,0-13.04-1.2-18.52-3.6Zm207.12,2.57l-23.52-40.87h-12.79v40.87h-16.76v-102.15h35.28c7.84,0,14.48,1.37,19.92,4.12c5.44,2.74,9.5,6.42,12.2,11.02c2.69,4.61,4.04,9.75,4.04,15.44c0,6.67-1.94,12.72-5.81,18.15-3.87,5.44-9.83,9.14-17.86,11.1l25.28,42.34h-19.99Zm-36.31-54.24h18.52c6.27,0,11-1.57,14.19-4.7c3.18-3.13,4.78-7.35,4.78-12.64s-1.57-9.43-4.7-12.42c-3.14-2.99-7.89-4.48-14.26-4.48h-18.52v34.25Zm94.23-34.4v29.99h35.28v13.67h-35.28v31.31h39.69v13.67h-56.45v-102.3h56.45v13.67h-39.69Zm145.53,88.64h-16.76L2508,55v76.29h-16.76v-102.3h16.76l50.42,76.15v-76.15h16.76v102.31Zm89.38-102.17v13.67h-27.2v88.49h-16.76v-88.47h-27.34v-13.67h71.29Zm79.82,81.29h-42.78l-7.35,20.87h-17.49l36.6-102.31h19.4l36.6,102.31h-17.64l-7.35-20.87Zm-4.7-13.67l-16.61-47.48-16.76,47.48h33.37Zm63.65,21.02h34.54v13.52h-51.3v-102.14h16.76v88.64Zm207.85,13.52l-12.64-12.64c-4.9,4.9-10.24,8.55-16.02,10.95s-12.25,3.6-19.4,3.6-13.67-1.27-19.26-3.82-9.9-6.2-12.94-10.95-4.56-10.26-4.56-16.54c0-7.06,2.01-13.35,6.03-18.89s10-9.92,17.93-13.16c-2.84-3.43-4.85-6.64-6.03-9.63s-1.76-6.3-1.76-9.92c0-4.51,1.15-8.53,3.45-12.05c2.3-3.53,5.61-6.32,9.92-8.38s9.31-3.09,14.99-3.09s10.71,1.1,14.77,3.31c4.07,2.21,7.1,5.22,9.11,9.04s2.82,8.08,2.43,12.79h-16.76c.1-3.62-.79-6.44-2.65-8.45s-4.41-3.01-7.64-3.01-5.86.96-7.86,2.87c-2.01,1.91-3.01,4.24-3.01,6.98s.76,5.27,2.28,7.86c1.52,2.6,4.19,5.95,8.01,10.07l27.05,26.9l10.44-17.2h18.08l-13.23,22.64-3.67,6.03l24.84,24.7h-21.9Zm-23.67-23.67l-27.05-27.2c-11.56,4.61-17.35,11.57-17.35,20.87c0,5,1.86,9.19,5.59,12.57c3.72,3.38,8.53,5.07,14.41,5.07c9.21,0,17.35-3.77,24.4-11.32Zm244.6-78.5v102.17h-16.76v-69.95l-31.16,69.97h-11.61l-31.31-69.97v69.97h-16.76v-102.16h18.08l35.87,80.12l35.72-80.12h17.93Zm43.73,96.51c-7.99-4.46-14.31-10.68-18.96-18.67-4.66-7.99-6.98-16.98-6.98-26.97s2.33-18.96,6.98-26.9s10.97-14.13,18.96-18.6c7.99-4.46,16.73-6.69,26.24-6.69s18.4,2.23,26.39,6.69s14.28,10.66,18.89,18.6c4.6,7.94,6.91,16.91,6.91,26.9s-2.3,18.99-6.91,26.97c-4.61,7.99-10.9,14.21-18.89,18.67s-16.78,6.69-26.39,6.69-18.25-2.23-26.24-6.69Zm44.32-12.5c5.29-3.09,9.43-7.5,12.42-13.23s4.48-12.37,4.48-19.92-1.5-14.16-4.48-19.85c-2.99-5.68-7.13-10.04-12.42-13.08s-11.32-4.56-18.08-4.56-12.79,1.52-18.08,4.56-9.43,7.4-12.42,13.08c-2.99,5.69-4.48,12.3-4.48,19.85s1.49,14.19,4.48,19.92s7.13,10.14,12.42,13.23s11.32,4.63,18.08,4.63s12.79-1.54,18.08-4.63Zm104.96,18.15L3401.6,90.4h-12.79v40.87h-16.76v-102.13h35.28c7.84,0,14.48,1.37,19.92,4.12c5.44,2.74,9.5,6.42,12.2,11.02c2.69,4.61,4.04,9.75,4.04,15.44c0,6.67-1.94,12.72-5.81,18.15-3.87,5.44-9.83,9.14-17.86,11.1l25.28,42.34h-19.99Zm-36.31-54.24h18.52c6.27,0,11-1.57,14.19-4.7c3.18-3.13,4.78-7.35,4.78-12.64s-1.57-9.43-4.7-12.42c-3.14-2.99-7.89-4.48-14.26-4.48h-18.52v34.25Zm94.23-34.4v29.99h35.28v13.67h-35.28v31.31h39.69v13.67h-56.45v-102.28h56.45v13.67h-39.69Z" transform="translate(-3557 0)" fill="none" stroke="#ac6620"/><path d="M143.82,29.14v102.17h-16.76v-44.69h-48.07v44.69h-16.76v-102.17h16.76v43.81h48.07v-43.81h16.76Zm43.73,96.51c-7.99-4.46-14.31-10.68-18.96-18.67-4.66-7.99-6.98-16.98-6.98-26.97s2.33-18.96,6.98-26.9s10.97-14.13,18.96-18.6c7.99-4.46,16.73-6.69,26.24-6.69s18.4,2.23,26.39,6.69s14.28,10.66,18.89,18.6s6.91,16.91,6.91,26.9-2.3,18.99-6.91,26.97c-4.61,7.99-10.9,14.21-18.89,18.67s-16.78,6.69-26.39,6.69-18.25-2.23-26.24-6.69Zm44.32-12.5c5.29-3.09,9.43-7.5,12.42-13.23s4.48-12.37,4.48-19.92-1.5-14.16-4.48-19.85c-2.99-5.68-7.13-10.04-12.42-13.08s-11.32-4.56-18.08-4.56-12.79,1.52-18.08,4.56-9.43,7.4-12.42,13.08c-2.99,5.69-4.48,12.3-4.48,19.85s1.49,14.19,4.48,19.92s7.13,10.14,12.42,13.23s11.32,4.63,18.08,4.63s12.79-1.54,18.08-4.63Zm68.51-84.01v65.12c0,7.74,2.03,13.57,6.1,17.49s9.73,5.88,16.98,5.88s13.06-1.96,17.13-5.88s6.1-9.75,6.1-17.49v-65.12h16.76v64.82c0,8.33-1.81,15.39-5.44,21.17s-8.48,10.09-14.55,12.94c-6.08,2.84-12.79,4.26-20.14,4.26s-14.04-1.42-20.07-4.26-10.8-7.15-14.33-12.94c-3.53-5.78-5.29-12.84-5.29-21.17v-64.82h16.76Zm101.28,99.59c-5.49-2.4-9.8-5.81-12.94-10.22s-4.7-9.55-4.7-15.43h17.93c.39,4.41,2.13,8.04,5.22,10.88s7.42,4.26,13.01,4.26s10.29-1.4,13.52-4.19s4.85-6.39,4.85-10.8c0-3.43-1.01-6.22-3.01-8.38-2.01-2.15-4.51-3.82-7.5-5s-7.13-2.45-12.42-3.82c-6.67-1.76-12.08-3.55-16.24-5.37-4.17-1.81-7.72-4.63-10.66-8.45s-4.41-8.92-4.41-15.29c0-5.88,1.47-11.03,4.41-15.44s7.06-7.79,12.35-10.14s11.42-3.53,18.38-3.53c9.9,0,18.01,2.48,24.33,7.42c6.32,4.95,9.82,11.74,10.51,20.36h-18.52c-.29-3.72-2.06-6.91-5.29-9.55-3.23-2.65-7.5-3.97-12.79-3.97-4.8,0-8.72,1.23-11.76,3.67-3.04,2.45-4.56,5.98-4.56,10.58c0,3.14.96,5.71,2.87,7.72s4.34,3.6,7.28,4.78s6.96,2.45,12.05,3.82c6.76,1.86,12.27,3.73,16.54,5.59c4.26,1.86,7.89,4.73,10.88,8.6s4.48,9.04,4.48,15.51c0,5.2-1.4,10.09-4.19,14.7s-6.86,8.31-12.2,11.1-11.64,4.19-18.89,4.19c-6.86,0-13.03-1.2-18.52-3.6Zm91.73-86.07v29.99h35.28v13.67h-35.28v31.31h39.69v13.67h-56.45v-102.31h56.45v13.67h-39.69Zm76.73,86.07c-5.49-2.4-9.8-5.81-12.94-10.22s-4.7-9.55-4.7-15.43h17.93c.39,4.41,2.13,8.04,5.22,10.88s7.42,4.26,13.01,4.26s10.29-1.4,13.52-4.19s4.85-6.39,4.85-10.8c0-3.43-1.01-6.22-3.01-8.38-2.01-2.15-4.51-3.82-7.5-5s-7.13-2.45-12.42-3.82c-6.67-1.76-12.08-3.55-16.24-5.37-4.17-1.81-7.72-4.63-10.66-8.45s-4.41-8.92-4.41-15.29c0-5.88,1.47-11.03,4.41-15.44s7.06-7.79,12.35-10.14s11.42-3.53,18.38-3.53c9.9,0,18.01,2.48,24.33,7.42c6.32,4.95,9.82,11.74,10.51,20.36h-18.52c-.29-3.72-2.06-6.91-5.29-9.55-3.23-2.65-7.5-3.97-12.79-3.97-4.8,0-8.72,1.23-11.76,3.67-3.04,2.45-4.56,5.98-4.56,10.58c0,3.14.96,5.71,2.87,7.72s4.34,3.6,7.28,4.78s6.96,2.45,12.05,3.82c6.76,1.86,12.27,3.73,16.54,5.59c4.26,1.86,7.89,4.73,10.88,8.6s4.48,9.04,4.48,15.51c0,5.2-1.4,10.09-4.19,14.7s-6.86,8.31-12.2,11.1-11.64,4.19-18.89,4.19c-6.86,0-13.03-1.2-18.52-3.6Zm242.1-99.59L773.85,131.31h-19.4L715.94,29.14h17.93l30.28,84.97l30.43-84.97h17.64Zm32.04,0v102.17h-16.76v-102.17h16.76Zm40.13,88.64h34.54v13.52h-51.3v-102.16h16.76v88.64Zm66.59,0h34.54v13.52h-51.3v-102.16h16.76v88.64Zm111.42-7.35h-42.78l-7.35,20.87h-17.49l36.6-102.31h19.4l36.6,102.31h-17.64l-7.35-20.87Zm-4.7-13.67l-16.61-47.48-16.76,47.48h33.37Zm62.03,31.97c-5.49-2.4-9.8-5.81-12.94-10.22s-4.7-9.55-4.7-15.43h17.93c.39,4.41,2.13,8.04,5.22,10.88s7.42,4.26,13.01,4.26s10.29-1.4,13.52-4.19s4.85-6.39,4.85-10.8c0-3.43-1.01-6.22-3.01-8.38-2.01-2.15-4.51-3.82-7.5-5s-7.13-2.45-12.42-3.82c-6.67-1.76-12.08-3.55-16.24-5.37-4.17-1.81-7.72-4.63-10.66-8.45s-4.41-8.92-4.41-15.29c0-5.88,1.47-11.03,4.41-15.44s7.06-7.79,12.35-10.14s11.42-3.53,18.38-3.53c9.9,0,18.01,2.48,24.33,7.42c6.32,4.95,9.82,11.74,10.51,20.36h-18.52c-.29-3.72-2.06-6.91-5.29-9.55-3.23-2.65-7.5-3.97-12.79-3.97-4.8,0-8.72,1.23-11.76,3.67-3.04,2.45-4.56,5.98-4.56,10.58c0,3.14.96,5.71,2.87,7.72s4.34,3.6,7.28,4.78s6.96,2.45,12.05,3.82c6.76,1.86,12.27,3.73,16.54,5.59c4.26,1.86,7.89,4.73,10.88,8.6s4.48,9.04,4.48,15.51c0,5.2-1.4,10.09-4.19,14.7s-6.86,8.31-12.2,11.1-11.64,4.19-18.89,4.19c-6.86,0-13.04-1.2-18.52-3.6Zm215.65-18.3h-42.78l-7.35,20.87h-17.49l36.6-102.31h19.4l36.6,102.31h-17.64l-7.35-20.87Zm-4.7-13.67l-16.61-47.48-16.76,47.48h33.37Zm114.66-22.49c-2.45,4.61-6.37,8.36-11.76,11.25s-12.3,4.34-20.73,4.34h-18.52v41.45h-16.76v-102.17h35.28c7.84,0,14.48,1.35,19.92,4.04c5.44,2.7,9.5,6.35,12.2,10.95c2.69,4.61,4.04,9.75,4.04,15.43c0,5.2-1.23,10.09-3.67,14.7Zm-18.23-2.43c3.13-2.89,4.7-6.98,4.7-12.27c0-11.17-6.32-16.76-18.96-16.76h-18.52v33.37h18.52c6.37,0,11.12-1.44,14.26-4.34Zm100.84,38.59h-42.78l-7.35,20.87h-17.49l36.6-102.31h19.4l36.6,102.31h-17.64l-7.35-20.87Zm-4.7-13.67l-16.61-47.48-16.76,47.48h33.37Zm99.96,34.54l-23.52-40.87h-12.79v40.87h-16.76v-102.16h35.28c7.84,0,14.48,1.37,19.92,4.12c5.44,2.74,9.5,6.42,12.2,11.02c2.69,4.61,4.04,9.75,4.04,15.44c0,6.67-1.94,12.72-5.81,18.15-3.87,5.44-9.83,9.14-17.86,11.1l25.28,42.34h-19.99ZM1586.9,77.06h18.52c6.27,0,11-1.57,14.19-4.7c3.18-3.13,4.78-7.35,4.78-12.64s-1.57-9.43-4.7-12.42c-3.14-2.99-7.89-4.48-14.26-4.48h-18.52v34.25Zm143.47-47.92v13.67h-27.2v88.49h-16.76v-88.49h-27.34v-13.67h71.29Zm125.83,0v102.17h-16.76v-69.98l-31.16,69.97h-11.61l-31.31-69.97v69.97h-16.76v-102.16h18.08l35.87,80.12l35.72-80.12h17.93Zm40.13,13.52v29.99h35.28v13.67h-35.28v31.31h39.69v13.67h-56.45v-102.31h56.45v13.67h-39.69Z" fill="none" stroke="#ac6620"/></g></g></svg>
