<svg xmlns="http://www.w3.org/2000/svg" width="77.555" height="62.92" viewBox="0 0 77.555 62.92">
  <path id="Path_1947" data-name="Path 1947" d="M18.112,32.528A15.393,15.393,0,0,1,30.5,38.157q4.728,5.629,4.728,16.437A51.6,51.6,0,0,1,20.363,91.52a8.821,8.821,0,0,1-6.3,2.927A8.415,8.415,0,0,1,8.2,92.2a7.053,7.053,0,0,1-2.477-5.4,7.644,7.644,0,0,1,2.252-5.179A34.5,34.5,0,0,0,16.761,65.4a16.564,16.564,0,0,1-10.7-5.066A15.25,15.25,0,0,1,1.9,49.415,16.775,16.775,0,0,1,6.516,37.369,15.35,15.35,0,0,1,18.112,32.528Zm43.231,0a15.393,15.393,0,0,1,12.384,5.629q4.728,5.629,4.728,16.437A51.6,51.6,0,0,1,63.594,91.52a8.821,8.821,0,0,1-6.3,2.927A8.415,8.415,0,0,1,51.436,92.2a7.053,7.053,0,0,1-2.477-5.4,7.644,7.644,0,0,1,2.252-5.179A34.5,34.5,0,0,0,59.992,65.4a16.564,16.564,0,0,1-10.7-5.066,15.25,15.25,0,0,1-4.165-10.92,16.775,16.775,0,0,1,4.616-12.046A15.35,15.35,0,0,1,61.343,32.528Z" transform="translate(-1.4 -32.028)" fill="none" stroke="#c9823b" stroke-width="1"/>
</svg>
