<svg id="eknVsZ9wLr21" xmlns="http://www.w3.org/2000/svg" xmlns:xlink="http://www.w3.org/1999/xlink" viewBox="0 0 120 120" shape-rendering="geometricPrecision" text-rendering="geometricPrecision"><style><![CDATA[#eknVsZ9wLr22_tr {animation: eknVsZ9wLr22_tr__tr 20000ms linear infinite normal forwards}@keyframes eknVsZ9wLr22_tr__tr { 0% {transform: translate(59.999548px,60.011225px) rotate(0deg)} 100% {transform: translate(59.999548px,60.011225px) rotate(-360deg)}}]]></style><g id="eknVsZ9wLr22_tr" transform="translate(59.999548,60.011225) rotate(0)"><g transform="translate(-59.999548,-60.011225)"><path d="M42.29,13.26c-.43-.03-.8-.15-1.12-.38-.32-.22-.56-.54-.71-.94l1.43-.51c.12.27.29.45.52.55s.5.09.8-.02c.31-.11.53-.27.66-.48.12-.21.15-.44.06-.68-.07-.2-.19-.34-.35-.42-.17-.08-.35-.13-.56-.14-.21,0-.49,0-.83.02-.48.03-.87.02-1.19,0-.31-.03-.61-.13-.89-.32s-.5-.48-.65-.9c-.14-.39-.16-.77-.07-1.13s.29-.68.59-.97c.3-.28.68-.5,1.14-.66.69-.24,1.3-.27,1.85-.09s.95.56,1.2,1.15l-1.47.52c-.09-.22-.26-.38-.49-.46s-.5-.08-.8.03c-.26.09-.45.23-.55.42-.11.19-.12.41-.03.66.06.18.17.31.33.38s.34.12.54.13.48,0,.83,0c.48-.03.88-.02,1.19,0c.32.03.62.14.91.32s.5.48.65.9c.13.36.15.72.07,1.09s-.26.71-.55,1.02-.68.55-1.17.72c-.46.16-.91.23-1.34.2Z" fill="#ac6620"/><path d="M33.01,11.3l.85,1.55l2.09-1.14.54.99-2.09,1.14.9,1.64l2.35-1.28.55,1.01-3.6,1.96-3.38-6.21L34.82,9l.55,1.01-2.35,1.28Z" fill="#ac6620"/><path d="M31.61,19.05l-1.11.88-5.52-1.81l3.01,3.8-1.11.88-4.39-5.54l1.11-.88l5.53,1.82-3.01-3.81l1.11-.88l4.39,5.54Z" fill="#ac6620"/><path d="M19.22,20.49l5.14,4.84-.97,1.03-5.14-4.84.97-1.03Z" fill="#ac6620"/><path d="M18.75,31.92c-.37.22-.75.33-1.14.34s-.76-.12-1.12-.37l.88-1.23c.25.15.49.2.74.15.24-.05.46-.21.65-.47.19-.27.28-.53.26-.77s-.13-.44-.34-.59c-.17-.12-.35-.17-.53-.14s-.36.09-.54.2-.4.28-.67.49c-.38.29-.7.52-.98.68s-.58.24-.92.25-.69-.11-1.05-.37c-.34-.24-.57-.54-.71-.89-.13-.35-.15-.73-.07-1.13.09-.4.27-.8.55-1.2.42-.59.91-.97,1.47-1.13.55-.16,1.1-.08,1.64.25l-.91,1.27c-.21-.13-.43-.16-.67-.1s-.45.22-.64.48c-.16.22-.23.45-.21.66.02.22.14.4.36.56.15.11.32.15.49.12s.35-.1.52-.2c.17-.11.4-.27.67-.48.38-.29.7-.52.98-.68s.59-.24.93-.25.69.11,1.05.36c.31.22.53.5.68.85s.19.73.13,1.15-.25.84-.55,1.26c-.29.4-.61.71-.98.93Z" fill="#ac6620"/><path d="M8.22,36.7l3.94,1.89c.43.21.82.25,1.15.14.34-.12.6-.38.8-.78.2-.41.24-.79.12-1.12s-.4-.6-.83-.81L9.46,34.13l.62-1.29l3.93,1.89c.54.26.94.6,1.2,1.01s.39.86.39,1.34-.11.96-.35,1.44c-.23.47-.53.86-.9,1.15-.37.3-.8.47-1.28.51-.48.05-.99-.06-1.53-.32L7.61,37.97l.61-1.28Z" fill="#ac6620"/><path d="M9.82,43.65c.38-.16.77-.19,1.17-.08.36.1.66.28.89.53s.37.57.44.95c.06.38.03.8-.09,1.26l-.8,2.94-6.81-1.87.77-2.81c.13-.46.31-.84.55-1.13s.52-.49.83-.59.64-.1.98,0c.4.11.7.31.91.59s.32.62.33,1c.18-.36.46-.63.83-.79ZM7.79,46.8l.34-1.25c.09-.33.08-.6-.01-.81-.1-.22-.28-.36-.56-.44-.27-.07-.51-.04-.71.09s-.34.36-.43.69l-.34,1.25l1.71.47Zm3.24-1.42c-.11-.23-.3-.38-.59-.46s-.55-.05-.77.1-.37.39-.47.72l-.37,1.35l1.83.5.38-1.38c.09-.33.08-.61-.02-.84Z" fill="#ac6620"/><path d="M3.32,56.66l4.56,2.46l2.46.04-.02,1.42-2.46-.04-4.64,2.32.03-1.6L6.5,59.8L3.3,58.24l.03-1.58Z" fill="#ac6620"/><path d="M9.82,67.91l-.35-2.3l1.11-.17.56,3.7L4.16,70.2l-.21-1.4l5.87-.89Z" fill="#ac6620"/><path d="M5.15,74.55l6.8-1.89.38,1.36-6.8,1.89-.38-1.36Z" fill="#ac6620"/><path d="M6.91,80.41l6.4-2.97.6,1.28-4.16,1.93l4.96-.22.45.97-3.36,3.66l4.16-1.93.6,1.28-6.4,2.97-.68-1.46l3.82-4.25-5.71.17-.67-1.45Z" fill="#ac6620"/><path d="M18.24,89.37l1.68,2.26l1.36-.43.89,1.19-7.19,2.19L14,93.26L18.15,87l.89,1.2-.8,1.18Zm-.68.98L15.8,92.93l2.98-.94-1.22-1.64Z" fill="#ac6620"/><path d="M19.12,99.45l.79-.83l2.13,2.03l1.25-1.31-1.63-1.56.78-.81l1.63,1.56l2.06-2.16l1.02.98-4.88,5.1-3.15-3.01Z" fill="#ac6620"/><path d="M29.95,108.26l.56-1l1.64.93l2.91-5.15l1.23.7-2.91,5.15l1.64.93-.56,1-4.51-2.55Z" fill="#ac6620"/><path d="M41.16,112.4l.62-1.66-2.23-.83.39-1.05l2.23.83.66-1.75-2.51-.94.4-1.08l3.84,1.43-2.48,6.62-3.84-1.44.4-1.08l2.51.94Z" fill="#ac6620"/><path d="M49.23,108.61l1.92,3.58.6-3.09l1.39.27-1.35,6.93-1.39-.27.61-3.11-3.13,2.61-1.68-.33l3.53-2.88-2.26-4.07l1.76.34Z" fill="#ac6620"/><path d="M58.09,109.77l1.51,2.78h.67l.05-2.74l1.42.03-.13,7.06-2.65-.05c-.55,0-1.01-.11-1.39-.31s-.66-.46-.85-.79-.28-.7-.27-1.1c0-.47.15-.88.43-1.25s.68-.62,1.22-.75l-1.64-2.89l1.64.03Zm2.15,3.85l-1.18-.02c-.38,0-.67.08-.86.26s-.29.44-.3.77c0,.32.08.58.27.76s.47.28.85.28l1.18.02.04-2.07Z" fill="#ac6620"/><path d="M66.93,110.71l2.78-.45.25-1.4l1.47-.24L70.05,116l-1.63.26-3.63-6.58l1.48-.24.67,1.25Zm.56,1.06l1.48,2.75.54-3.08-2.02.32Z" fill="#ac6620"/><path d="M76.91,114.47l-2.53-6.59l1.32-.51l1.65,4.29.12-4.96l1-.38l3.42,3.61-1.65-4.29l1.32-.51l2.53,6.59-1.5.58-3.98-4.1-.22,5.71-1.49.57Z" fill="#ac6620"/><path d="M94.21,104.09l-1.07-1.41-1.89,1.44-.68-.9l1.89-1.43-1.13-1.49-2.14,1.62-.7-.92l3.27-2.47l4.27,5.64-3.27,2.47-.7-.92l2.14-1.62Z" fill="#ac6620"/><path d="M99.57,101.06l-5.14-4.83.97-1.03l2.19,2.06l2.07-2.2L97.47,93l.97-1.03l5.14,4.83-.97,1.03-2.11-1.99-2.07,2.2l2.12,1.99-.97,1.03Z" fill="#ac6620"/><path d="M106.27,93.34l-.96-.63l1.03-1.57-4.94-3.25.78-1.18l4.94,3.25l1.03-1.57.96.63-2.84,4.33Z" fill="#ac6620"/><path d="M106.64,78.11l.43-1.35l5.59-1.57-4.61-1.48.43-1.35l6.73,2.16-.43,1.35-5.6,1.57l4.62,1.48-.43,1.35-6.73-2.16Z" fill="#ac6620"/><path d="M110.21,63.97c.37-.51.85-.9,1.43-1.16s1.22-.35,1.91-.27c.68.08,1.28.31,1.79.69s.89.87,1.13,1.45.33,1.21.25,1.86c-.08.66-.3,1.25-.67,1.76s-.85.89-1.43,1.15-1.21.34-1.9.27c-.69-.08-1.29-.31-1.8-.69s-.89-.86-1.13-1.45-.33-1.21-.25-1.86c.08-.66.3-1.24.67-1.76Zm.74,3.05c.15.34.4.63.73.85s.74.36,1.2.41c.47.05.89.01,1.26-.13s.67-.36.9-.66c.22-.3.36-.66.41-1.08s0-.81-.15-1.15c-.15-.35-.39-.63-.72-.85s-.73-.36-1.2-.41-.89-.01-1.27.13-.68.36-.91.66-.37.67-.42,1.09s0,.8.16,1.15Z" fill="#ac6620"/><path d="M115.49,51.56c.11-.19.14-.43.09-.74-.08-.46-.32-.77-.72-.92-.41-.16-1.02-.17-1.86-.04.29.12.54.31.74.6s.33.6.39.96c.07.43.04.83-.09,1.19s-.36.67-.68.91c-.33.24-.74.41-1.24.49-.47.08-.91.05-1.31-.08s-.73-.36-1-.69-.44-.75-.53-1.26c-.11-.69-.05-1.26.19-1.71s.62-.79,1.15-1.04c.52-.25,1.19-.44,1.99-.57c1.22-.2,2.17-.14,2.86.17.69.32,1.11.93,1.26,1.83.12.7.02,1.27-.3,1.72s-.75.75-1.31.9l-.21-1.3c.27-.11.46-.26.57-.45Zm-3.01-1.11c-.25-.21-.56-.28-.96-.21s-.68.23-.87.49-.25.59-.18,1c.06.36.22.63.47.8s.57.23.94.17c.39-.06.67-.22.87-.46.19-.24.26-.56.19-.95-.06-.35-.21-.63-.46-.84Z" fill="#ac6620"/><path d="M114.04,44.2l-6.83-.51-.46-1.36l6.69.58-1.12-3.27l1.15-.39l1.57,4.61-1,.34Z" fill="#ac6620"/><path d="M105.01,35.31c-.05.24,0,.51.16.79.2.37.49.55.89.56.4,0,.96-.19,1.68-.58-.26-.04-.52-.15-.75-.34-.24-.19-.44-.43-.59-.71-.2-.38-.31-.77-.31-1.16s.1-.76.32-1.1c.22-.35.55-.64.99-.88.66-.35,1.29-.44,1.89-.25.6.18,1.08.61,1.44,1.29.45.84.5,1.58.15,2.22s-1.08,1.25-2.16,1.83c-.77.41-1.44.69-2.01.82s-1.06.1-1.49-.08c-.43-.19-.79-.56-1.09-1.12-.24-.44-.35-.86-.35-1.26s.1-.76.29-1.07.44-.57.76-.77l.62,1.16c-.24.19-.38.4-.43.65Zm3.21.02c.29.08.59.03.91-.14.35-.19.57-.43.67-.72.09-.29.05-.6-.12-.92s-.41-.52-.71-.6-.61-.03-.94.14c-.32.17-.52.4-.63.68-.1.29-.06.61.14.98.17.31.39.5.68.58Z" fill="#ac6620"/><path d="M104.27,25.69l1.05-.77l1.45,1.96-5.94,4.37-.86-1.17l4.89-3.6-.58-.79Z" fill="#ac6620"/><path d="M95.94,17.29l-1.15,1.34l1.8,1.55-.73.85-1.8-1.55-1.22,1.42l2.04,1.74-.75.88-3.11-2.67l4.6-5.37l3.11,2.67-.75.88-2.04-1.74Z" fill="#ac6620"/><path d="M85.6,10.89c.55-.31,1.14-.46,1.76-.45s1.23.19,1.81.53c.68.4,1.17.93,1.47,1.58s.38,1.34.21,2.08l-1.4-.83c.03-.37-.03-.71-.2-1s-.42-.54-.75-.74c-.35-.21-.72-.31-1.09-.31s-.73.11-1.06.32-.62.52-.86.93c-.24.4-.37.8-.4,1.19-.03.4.05.76.23,1.09s.44.6.8.81c.33.2.67.29,1.01.3s.67-.1.98-.31l1.4.83c-.57.5-1.21.77-1.92.82-.71.04-1.41-.14-2.1-.54-.58-.34-1.03-.79-1.34-1.33s-.46-1.13-.45-1.76c0-.63.19-1.24.54-1.84s.81-1.05,1.36-1.37Z" fill="#ac6620"/><path d="M79.57,14.02l-1.34-.47-1.41-5.64-1.61,4.57-1.33-.47l2.35-6.67l1.33.47l1.41,5.65l1.62-4.58l1.33.47-2.35,6.67Z" fill="#ac6620"/><path d="M71.76,4.31l-1.35,6.93-1.39-.27l1.35-6.93l1.39.27Z" fill="#ac6620"/><path d="M61.83,10.01c-.38-.19-.68-.45-.89-.78s-.31-.71-.29-1.14l1.51.09c0,.29.09.53.27.7.18.18.42.28.75.3s.59-.04.79-.19.3-.35.32-.6c.01-.21-.04-.38-.16-.53-.12-.14-.27-.26-.46-.35s-.45-.19-.78-.3c-.45-.16-.81-.32-1.09-.46-.28-.15-.51-.36-.7-.64s-.27-.64-.25-1.08c.02-.42.15-.77.38-1.07s.53-.52.92-.66.82-.2,1.31-.17c.73.04,1.31.25,1.74.63s.66.89.67,1.52l-1.56-.09c0-.24-.09-.45-.27-.62s-.43-.26-.75-.28c-.28-.02-.5.04-.67.17s-.27.33-.28.6c-.01.19.04.35.16.48s.27.24.45.33.44.19.77.31c.45.16.82.32,1.1.47s.52.37.71.65.28.64.25,1.08c-.02.38-.14.72-.35,1.03s-.52.55-.9.72c-.39.17-.84.24-1.36.21-.49-.03-.93-.14-1.31-.33Z" fill="#ac6620"/><path d="M50.28,10.95c-.42-.1-.77-.28-1.05-.56-.28-.27-.46-.62-.54-1.05l1.49-.26c.07.28.21.49.42.62s.48.17.8.12c.33-.06.57-.18.73-.37s.22-.41.17-.66c-.04-.21-.13-.36-.28-.48-.15-.11-.33-.19-.53-.23s-.48-.08-.83-.12c-.47-.05-.86-.12-1.17-.2s-.58-.23-.83-.46-.41-.56-.49-1c-.07-.41-.03-.79.12-1.13s.4-.63.75-.85c.34-.23.75-.38,1.23-.47.72-.12,1.33-.05,1.84.22s.84.71,1,1.33l-1.53.27c-.05-.24-.19-.42-.41-.54s-.48-.16-.79-.1c-.27.05-.48.15-.62.32s-.18.38-.14.65c.03.19.12.33.26.43s.31.17.51.22c.2.04.47.09.82.13.47.05.87.12,1.18.21s.59.24.84.47.42.56.49.99c.06.37.03.73-.11,1.09-.14.35-.38.66-.71.91-.34.25-.76.42-1.28.51-.48.08-.94.08-1.35-.02Z" fill="#ac6620"/></g></g><g><g><circle r="8.14" transform="translate(45.68 42.72)" fill="none" stroke="#ac6620" stroke-miterlimit="10"/><path d="M60.13,84.95c-20.45,0-28.9-10.88-28.9-21.66c0-8.46,6.52-12.44,14.04-12.44c2.84,0,5.49.74,7.7,2.01" fill="none" stroke="#ac6620" stroke-miterlimit="10"/></g><g><circle r="8.14" transform="translate(74.59 42.72)" fill="none" stroke="#ac6620" stroke-miterlimit="10"/><path d="M60.13,84.95c20.45,0,28.9-10.88,28.9-21.66c0-8.46-6.52-12.44-14.04-12.44-2.84,0-5.49.74-7.7,2.01" fill="none" stroke="#ac6620" stroke-miterlimit="10"/></g><g><circle r="7.23" transform="translate(60.13 55.94)" fill="none" stroke="#ac6620" stroke-miterlimit="10"/><path d="M47.64,83.28v-9.22c0-6.01,5.59-10.89,12.49-10.89s12.49,4.88,12.49,10.89v9.22" fill="none" stroke="#ac6620" stroke-miterlimit="10"/></g></g></svg>